<svg width="21" height="17" viewBox="0 0 21 17" fill="none" xmlns="http://www.w3.org/2000/svg">
<path opacity="0.7" fill-rule="evenodd" clip-rule="evenodd" d="M21 2.01331C20.2273 2.35542 19.3966 2.58384 18.5259 2.68796C19.4156 2.15674 20.0983 1.31529 20.4202 0.31448C19.5865 0.805325 18.6649 1.1623 17.6833 1.35567C16.8986 0.520592 15.778 0 14.5395 0C12.1604 0 10.2301 1.92194 10.2301 4.29117C10.2301 4.62796 10.2681 4.95625 10.3421 5.26967C6.76142 5.09012 3.58663 3.38173 1.46144 0.786201C1.09058 1.42047 0.878665 2.15674 0.878665 2.944C0.878665 4.43141 1.63938 5.7467 2.79494 6.51591C2.0892 6.49253 1.42546 6.30023 0.843679 5.97831C0.843679 5.99744 0.843679 6.01337 0.843679 6.03356C0.843679 8.11274 2.32811 9.84663 4.29936 10.2408C3.9385 10.3385 3.55665 10.3895 3.16479 10.3895C2.8869 10.3895 2.617 10.364 2.3541 10.3152C2.90189 12.0182 4.49329 13.2602 6.37857 13.2953C4.90413 14.4459 3.04684 15.1312 1.02761 15.1312C0.679741 15.1312 0.336872 15.111 0 15.0717C1.90627 16.2882 4.17141 17 6.60448 17C14.5295 17 18.8628 10.4597 18.8628 4.78945C18.8628 4.60246 18.8578 4.41866 18.8498 4.2338C19.6915 3.62821 20.4222 2.87282 21 2.01331Z" fill="white"/>
</svg>
